# xmcd
#
# Track frame offsets:
#	300
#	25348
#	52041
#	91941
#	126984
#	143785
#	166680
#	195564
#	206667
#	231965
#	257742
#	265556
#	284930
#
# Disc length: 4159 seconds
#
# Revision: 0
# Processed by: cddbd v1.5.2PL0 Copyright (c) Steve Scherf et al.
# Submitted via: EasyCDDAExtractor 16.1.0.1
#
DISCID=c2103b0d
DTITLE=Extempore - Nádražka
DYEAR=1900
DGENRE=
TTITLE0=Krásná muzika
TTITLE1=Send To The Lord
TTITLE2=Plesnivý embryo
TTITLE3=Špitál na Františku
TTITLE4=I'm Feeling Bettter
TTITLE5=Epitaph
TTITLE6=Pavilon č. 2
TTITLE7=Kudy dál
TTITLE8=Bílá pouť
TTITLE9=Šel jsem včera domů
TTITLE10=Dog's Battle
TTITLE11=Andělé
TTITLE12=Ráj i peklo
EXTD=
EXTT0=
EXTT1=
EXTT2=
EXTT3=
EXTT4=
EXTT5=
EXTT6=
EXTT7=
EXTT8=
EXTT9=
EXTT10=
EXTT11=
EXTT12=
PLAYORDER=
